<?xml version="1.0" encoding="utf-8"?>
<!-- Generator: Adobe Illustrator 22.1.0, SVG Export Plug-In . SVG Version: 6.00 Build 0)  -->
<!DOCTYPE svg PUBLIC "-//W3C//DTD SVG 1.1//EN" "http://www.w3.org/Graphics/SVG/1.1/DTD/svg11.dtd">
<svg version="1.1" xmlns="http://www.w3.org/2000/svg" xmlns:xlink="http://www.w3.org/1999/xlink" x="0px" y="0px"
	 viewBox="0 0 1885.1 1000" style="enable-background:new 0 0 1885.1 1000;" xml:space="preserve">
<style type="text/css">
	.st0{fill:#E6E7E7;}
	.st1{fill:#BBBDBF;}
	.st2{fill:#929497;}
	.st3{fill:#808184;}
	.st4{fill:#414042;}
	.st5{fill:#FFFFFF;}
	.st6{fill:#D1D3D4;}
	.st7{fill:#F1F2F2;}
	.st8{fill:#00AEEF;}
	.st9{fill:#3D77BC;}
</style>
<g id="ORG_MONOCROCOMO">
</g>
<g id="NEGATIVO">
</g>
<g id="HORIZONTAL">
	<g>
		<polygon class="st0" points="395.1,576.2 681,635.1 393.6,748.9 109.6,635.8 		"/>
		<path class="st1" d="M394.4,173V827l314-163.5v-327L394.4,173z M681,635.1l-235.6,93.3V259.6L681,357.8V635.1z"/>
		<path class="st2" d="M80.5,336.5v327l314,163.5V173L80.5,336.5z M343.4,728.4l-233.8-92.6V357l233.8-97.4V728.4z"/>
	</g>
	<g>
		<path class="st3" d="M846.6,410.4c16.8,0,32.6,4.2,47.4,12.6c14.8,8.4,26.4,19.8,34.7,34.2c8.3,14.4,12.5,30,12.5,46.7
			c0,16.8-4.2,32.6-12.5,47.2c-8.4,14.6-19.7,26.1-34.2,34.3c-14.4,8.2-30.3,12.4-47.7,12.4c-25.6,0-47.4-9.1-65.5-27.3
			c-18.1-18.2-27.1-40.3-27.1-66.3c0-27.9,10.2-51.1,30.6-69.6C802.8,418.5,823.4,410.4,846.6,410.4z M847.4,452.5
			c-13.9,0-25.5,4.8-34.7,14.5c-9.2,9.7-13.9,22-13.9,37.1c0,15.5,4.6,28.1,13.7,37.7c9.1,9.6,20.7,14.4,34.7,14.4
			c14,0,25.7-4.9,35-14.6c9.3-9.7,14-22.2,14-37.5c0-15.3-4.6-27.7-13.7-37.3C873.3,457.3,861.6,452.5,847.4,452.5z"/>
		<path class="st3" d="M1045.7,410.4c16.8,0,32.6,4.2,47.4,12.6c14.8,8.4,26.4,19.8,34.7,34.2c8.3,14.4,12.5,30,12.5,46.7
			c0,16.8-4.2,32.6-12.5,47.2c-8.4,14.6-19.7,26.1-34.2,34.3c-14.4,8.2-30.3,12.4-47.7,12.4c-25.6,0-47.4-9.1-65.5-27.3
			c-18.1-18.2-27.1-40.3-27.1-66.3c0-27.9,10.2-51.1,30.6-69.6C1001.8,418.5,1022.4,410.4,1045.7,410.4z M1046.4,452.5
			c-13.9,0-25.5,4.8-34.7,14.5c-9.2,9.7-13.9,22-13.9,37.1c0,15.5,4.6,28.1,13.7,37.7c9.1,9.6,20.7,14.4,34.7,14.4
			c14,0,25.7-4.9,35-14.6c9.3-9.7,14-22.2,14-37.5c0-15.3-4.6-27.7-13.7-37.3C1072.3,457.3,1060.6,452.5,1046.4,452.5z"/>
		<path class="st3" d="M1205.4,415v19.7c8.1-8.1,16.8-14.1,26.2-18.2c9.4-4,19.4-6.1,30.1-6.1c23.3,0,43,8.8,59.3,26.4
			c16.3,17.6,24.4,40.1,24.4,67.7c0,26.5-8.4,48.7-25.2,66.6c-16.8,17.9-36.8,26.8-59.8,26.8c-10.3,0-19.8-1.8-28.7-5.5
			s-17.6-9.6-26.4-17.9v84.1H1161V415H1205.4z M1252.4,451.7c-14.1,0-25.8,4.8-35.1,14.4c-9.3,9.6-13.9,22.2-13.9,37.7
			c0,15.8,4.6,28.6,13.9,38.4c9.3,9.8,21,14.7,35.1,14.7c13.7,0,25.2-5,34.5-14.9c9.3-9.9,14-22.6,14-38c0-15.3-4.6-27.8-13.8-37.6
			C1278,456.6,1266.4,451.7,1252.4,451.7z"/>
		<path class="st3" d="M1387.9,349.3h44.7V415h26.5v38.5h-26.5v139.8h-44.7V453.5H1365V415h22.9V349.3z"/>
		<path class="st3" d="M1500.6,341.6c7.8,0,14.6,2.8,20.2,8.5c5.6,5.7,8.4,12.6,8.4,20.6c0,8-2.8,14.8-8.3,20.4
			c-5.6,5.6-12.2,8.4-19.9,8.4c-8,0-14.7-2.9-20.3-8.6c-5.6-5.7-8.4-12.7-8.4-20.9c0-7.9,2.8-14.6,8.3-20.2
			C1486,344.3,1492.7,341.6,1500.6,341.6z M1478.2,415h44.7v178.3h-44.7V415z"/>
		<path class="st3" d="M1563.3,415h44.7v20.5c7.6-8.4,16.2-14.7,25.5-18.8c9.3-4.2,19.5-6.2,30.6-6.2c11.1,0,21.2,2.7,30.2,8.2
			c9,5.5,16.2,13.4,21.6,23.9c7.1-10.5,15.8-18.5,26.2-23.9c10.3-5.5,21.6-8.2,33.9-8.2c12.7,0,23.8,2.9,33.5,8.8
			c9.6,5.9,16.5,13.6,20.7,23.1c4.2,9.5,6.3,25,6.3,46.4v104.5h-45.1v-90.4c0-20.2-2.5-33.9-7.5-41c-5-7.2-12.6-10.7-22.6-10.7
			c-7.6,0-14.5,2.2-20.6,6.6c-6.1,4.4-10.6,10.4-13.5,18.1c-2.9,7.7-4.4,20.1-4.4,37.1v80.5h-45.1v-86.4c0-15.9-1.2-27.5-3.5-34.7
			c-2.4-7.2-5.9-12.5-10.6-16c-4.7-3.5-10.4-5.2-17.1-5.2c-7.4,0-14.2,2.2-20.3,6.6c-6.1,4.4-10.6,10.6-13.6,18.6
			c-3,8-4.5,20.5-4.5,37.7v79.3h-44.7V415z"/>
	</g>
</g>
<g id="COLOR">
</g>
</svg>
