<?xml version="1.0" encoding="utf-8"?>
<!-- Generator: Adobe Illustrator 22.1.0, SVG Export Plug-In . SVG Version: 6.00 Build 0)  -->
<!DOCTYPE svg PUBLIC "-//W3C//DTD SVG 1.1//EN" "http://www.w3.org/Graphics/SVG/1.1/DTD/svg11.dtd">
<svg version="1.1" xmlns="http://www.w3.org/2000/svg" xmlns:xlink="http://www.w3.org/1999/xlink" x="0px" y="0px"
	 viewBox="0 0 1000 1000" style="enable-background:new 0 0 1000 1000;" xml:space="preserve">
<style type="text/css">
	.st0{fill:#E6E7E7;}
	.st1{fill:#BBBDBF;}
	.st2{fill:#929497;}
	.st3{fill:#808184;}
	.st4{fill:#414042;}
	.st5{fill:#FFFFFF;}
	.st6{fill:#D1D3D4;}
	.st7{fill:#F1F2F2;}
	.st8{fill:#00AEEF;}
	.st9{fill:#3D77BC;}
</style>
<g id="ORG_MONOCROCOMO">
</g>
<g id="NEGATIVO">
</g>
<g id="HORIZONTAL">
</g>
<g id="COLOR">
	<polygon class="st7" points="504.9,447.4 717.6,491.3 503.8,575.9 292.7,491.8 	"/>
	<path class="st8" d="M504.5,147.7V634l233.4-121.6V269.2L504.5,147.7z M717.6,491.3l-175.2,69.3V212.1l175.2,73V491.3z"/>
	<path class="st9" d="M271,269.2v243.2L504.5,634V147.7L271,269.2z M466.5,560.6l-173.9-68.8V284.5l173.9-72.4V560.6z"/>
	<g>
		<path class="st8" d="M164,666.6c12.6,0,24.4,3.2,35.5,9.4c11.1,6.3,19.7,14.8,26,25.6c6.2,10.8,9.3,22.5,9.3,35
			c0,12.6-3.1,24.4-9.4,35.3c-6.3,11-14.8,19.5-25.6,25.7c-10.8,6.2-22.7,9.3-35.7,9.3c-19.1,0-35.5-6.8-49-20.4
			c-13.5-13.6-20.3-30.2-20.3-49.6c0-20.9,7.6-38.2,22.9-52.2C131.1,672.6,146.5,666.6,164,666.6z M164.5,698.1
			c-10.4,0-19.1,3.6-26,10.9c-6.9,7.2-10.4,16.5-10.4,27.8c0,11.6,3.4,21,10.3,28.2c6.8,7.2,15.5,10.8,26,10.8
			c10.5,0,19.2-3.6,26.2-10.9c7-7.3,10.4-16.6,10.4-28.1c0-11.5-3.4-20.8-10.3-27.9C183.9,701.7,175.2,698.1,164.5,698.1z"/>
		<path class="st8" d="M313,666.6c12.6,0,24.4,3.2,35.5,9.4c11.1,6.3,19.7,14.8,26,25.6c6.2,10.8,9.3,22.5,9.3,35
			c0,12.6-3.1,24.4-9.4,35.3c-6.3,11-14.8,19.5-25.6,25.7c-10.8,6.2-22.7,9.3-35.7,9.3c-19.1,0-35.5-6.8-49-20.4
			c-13.5-13.6-20.3-30.2-20.3-49.6c0-20.9,7.6-38.2,22.9-52.2C280.2,672.6,295.6,666.6,313,666.6z M313.6,698.1
			c-10.4,0-19.1,3.6-26,10.9c-6.9,7.2-10.4,16.5-10.4,27.8c0,11.6,3.4,21,10.3,28.2c6.8,7.2,15.5,10.8,26,10.8
			c10.5,0,19.2-3.6,26.2-10.9c7-7.3,10.4-16.6,10.4-28.1c0-11.5-3.4-20.8-10.3-27.9C333,701.7,324.2,698.1,313.6,698.1z"/>
		<path class="st8" d="M432.7,670v14.7c6.1-6.1,12.6-10.6,19.6-13.6c7-3,14.6-4.5,22.6-4.5c17.4,0,32.2,6.6,44.4,19.8
			c12.2,13.2,18.3,30.1,18.3,50.7c0,19.9-6.3,36.5-18.9,49.9c-12.6,13.4-27.5,20.1-44.8,20.1c-7.7,0-14.8-1.4-21.5-4.1
			s-13.2-7.2-19.8-13.4v63h-33.3V670H432.7z M467.9,697.5c-10.6,0-19.3,3.6-26.3,10.8c-7,7.2-10.4,16.6-10.4,28.2
			c0,11.9,3.5,21.5,10.4,28.8c7,7.3,15.7,11,26.3,11c10.2,0,18.8-3.7,25.8-11.2c7-7.4,10.5-16.9,10.5-28.5
			c0-11.5-3.4-20.8-10.3-28.2C487,701.1,478.3,697.5,467.9,697.5z"/>
		<path class="st8" d="M569.4,620.8h33.5V670h19.9v28.8h-19.9v104.7h-33.5V698.8h-17.2V670h17.2V620.8z"/>
		<path class="st8" d="M653.7,615c5.9,0,10.9,2.1,15.1,6.4c4.2,4.3,6.3,9.4,6.3,15.5c0,6-2.1,11.1-6.2,15.3
			c-4.2,4.2-9.1,6.3-14.9,6.3c-6,0-11-2.1-15.2-6.4c-4.2-4.3-6.3-9.5-6.3-15.6c0-5.9,2.1-10.9,6.2-15.1
			C642.8,617.1,647.9,615,653.7,615z M637,670h33.5v133.5H637V670z"/>
		<path class="st8" d="M700.7,670h33.5v15.3c5.7-6.3,12.1-11,19.1-14.1c7-3.1,14.6-4.7,22.9-4.7c8.3,0,15.9,2,22.6,6.1
			c6.7,4.1,12.1,10.1,16.2,17.9c5.3-7.9,11.9-13.8,19.6-17.9c7.7-4.1,16.2-6.1,25.4-6.1c9.5,0,17.8,2.2,25.1,6.6
			c7.2,4.4,12.4,10.2,15.5,17.3c3.2,7.1,4.7,18.7,4.7,34.7v78.3h-33.7v-67.7c0-15.1-1.9-25.4-5.6-30.7c-3.8-5.4-9.4-8-16.9-8
			c-5.7,0-10.9,1.6-15.4,4.9c-4.5,3.3-7.9,7.8-10.1,13.6s-3.3,15-3.3,27.8v60.3h-33.7v-64.7c0-11.9-0.9-20.6-2.6-26
			c-1.8-5.4-4.4-9.3-7.9-12c-3.5-2.6-7.8-3.9-12.8-3.9c-5.6,0-10.6,1.7-15.2,5c-4.6,3.3-8,8-10.2,13.9c-2.3,6-3.4,15.4-3.4,28.2
			v59.4h-33.5V670z"/>
	</g>
</g>
</svg>
